# xmcd
#
# Track frame offsets:
#	150
#	17467
#	32408
#	45368
#	62173
#	78768
#	95409
#	108456
#	122086
#	138224
#	153241
#	166669
#
# Disc length: 2382 seconds
#
# Revision: 1
# Processed by: cddbd v1.5.2PL0 Copyright (c) Steve Scherf et al.
# Submitted via: audiograbber 1.83.01
#
DISCID=7f094c0c
DTITLE=Michael Peterson - Drink, Swear, Steal and Lie
DYEAR=2018
DGENRE=Country
TTITLE0=Lookin For Love
TTITLE1=Wichita Lineman
TTITLE2=Most Beautiful Girl In The World
TTITLE3=Boy Named Sue
TTITLE4=Friends In Low Places
TTITLE5=When The Bartender Cries
TTITLE6=Mama's Don't Let Your Babies Grow Up To Be Cowboys
TTITLE7=Drink, Swear Steal and Lie
TTITLE8=From Here To Eternity
TTITLE9=Too Good To Be True
TTITLE10=Borderline
TTITLE11=I`m My Own Grandpa
EXTD=
EXTT0=
EXTT1=
EXTT2=
EXTT3=
EXTT4=
EXTT5=
EXTT6=
EXTT7=
EXTT8=
EXTT9=
EXTT10=
EXTT11=
PLAYORDER=
